<?xml version="1.0" encoding="UTF-8" standalone="no"?>
<svg
   xmlns:dc="http://purl.org/dc/elements/1.1/"
   xmlns:cc="http://creativecommons.org/ns#"
   xmlns:rdf="http://www.w3.org/1999/02/22-rdf-syntax-ns#"
   xmlns:svg="http://www.w3.org/2000/svg"
   xmlns="http://www.w3.org/2000/svg"
   xmlns:sodipodi="http://sodipodi.sourceforge.net/DTD/sodipodi-0.dtd"
   xmlns:inkscape="http://www.inkscape.org/namespaces/inkscape"
   fill="none"
   viewBox="0 0 348 348"
   version="1.1"
   id="svg6"
   sodipodi:docname="Life Iteration.svg"
   inkscape:version="0.92.4 (5da689c313, 2019-01-14)">
  <metadata
     id="metadata12">
    <rdf:RDF>
      <cc:Work
         rdf:about="">
        <dc:format>image/svg+xml</dc:format>
        <dc:type
           rdf:resource="http://purl.org/dc/dcmitype/StillImage" />
      </cc:Work>
    </rdf:RDF>
  </metadata>
  <defs
     id="defs10" />
  <sodipodi:namedview
     pagecolor="#ffffff"
     bordercolor="#666666"
     borderopacity="1"
     objecttolerance="10"
     gridtolerance="10"
     guidetolerance="10"
     inkscape:pageopacity="0"
     inkscape:pageshadow="2"
     inkscape:window-width="1366"
     inkscape:window-height="706"
     id="namedview8"
     showgrid="false"
     inkscape:zoom="1.27"
     inkscape:cx="174"
     inkscape:cy="153.1501"
     inkscape:window-x="-8"
     inkscape:window-y="-8"
     inkscape:window-maximized="1"
     inkscape:current-layer="svg6" />
  <path
     d="M5.08 5.78h336.91v337.67H5.08zM282.73 40.55c0-8.37 6.97-15.16 15.56-15.16 4.13 0 8.09 1.6 11 4.44a14.96 14.96 0 0 1 4.56 10.72c0 8.38-6.96 15.17-15.56 15.17-8.59 0-15.56-6.8-15.56-15.17zM22 22h37.5v37.5H22zm37.5 0H97v37.5H59.5zM97 22h37.5v37.5H97zm37.5 0H172v37.5h-37.5zm37.5 0h37.5v37.5H172zm37.5 0H247v37.5h-37.5zM22 59.5h37.5V97H22zm37.5 0H97V97H59.5zm37.5 0h37.5V97H97zm37.5 0H172V97h-37.5zm37.5 0h37.5V97H172zm37.5 0H247V97h-37.5zM22 97h37.5v37.5H22zm37.5 0H97v37.5H59.5zM97 97h37.5v37.5H97zm37.5 0H172v37.5h-37.5zm37.5 0h37.5v37.5H172zm37.5 0H247v37.5h-37.5zM22 134.5h37.5V172H22zm37.5 0H97V172H59.5zm37.5 0h37.5V172H97zm37.5 0H172V172h-37.5zm37.5 0h37.5V172H172zm37.5 0H247V172h-37.5zM22 172h37.5v37.5H22zm37.5 0H97v37.5H59.5zm37.5 0h37.5v37.5H97zm37.5 0H172v37.5h-37.5zm37.5 0h37.5v37.5H172zm37.5 0H247v37.5h-37.5zM22 209.5h37.5V247H22zm37.5 0H97V247H59.5zm37.5 0h37.5V247H97zm37.5 0H172V247h-37.5zm37.5 0h37.5V247H172zm37.5 0H247V247h-37.5zM22 247h37.5v37.5H22zm37.5 0H97v37.5H59.5zm37.5 0h37.5v37.5H97zm37.5 0H172v37.5h-37.5zm37.5 0h37.5v37.5H172zm37.5 0H247v37.5h-37.5zM22 284.5h37.5V322H22zm37.5 0H97V322H59.5zm37.5 0h37.5V322H97zm37.5 0H172V322h-37.5zm37.5 0h37.5V322H172zm37.5 0H247V322h-37.5zm46.06-150.37h68.15v38.42h-68.15zm0 43.86h68.15v38.42h-68.15zm0 64.52h68.15v38.42h-68.15z"
     id="path2"
     stroke-width="2"
     stroke="#000" />
  <path
     d="m 274.05,158.76 1.51,0.76 c -0.31,2.5 -0.89,4.4 -1.71,5.7 -0.83,1.3 -1.84,1.96 -3.03,1.96 -1.23,0 -2.24,-0.5 -3.01,-1.5 a 11.1,11.1 0 0 1 -1.77,-4.37 c -0.4,-1.91 -0.6,-3.96 -0.6,-6.14 0,-2.39 0.23,-4.47 0.68,-6.25 a 9.41,9.41 0 0 1 1.95,-4.04 3.72,3.72 0 0 1 2.77,-1.39 c 1.15,0 2.11,0.59 2.9,1.75 a 12.07,12.07 0 0 1 1.63,4.93 l -1.5,0.7 a 9.54,9.54 0 0 0 -1.15,-3.64 c -0.5,-0.76 -1.14,-1.14 -1.9,-1.14 -0.89,0 -1.62,0.42 -2.21,1.26 a 8.22,8.22 0 0 0 -1.25,3.4 26.43,26.43 0 0 0 -0.36,4.4 c 0,1.95 0.14,3.65 0.43,5.1 a 7.26,7.26 0 0 0 1.32,3.26 c 0.6,0.72 1.25,1.08 1.95,1.08 0.85,0 1.56,-0.5 2.15,-1.47 0.6,-0.98 0.99,-2.43 1.2,-4.36 z m 3.33,8.04 v -22.92 h 1.51 v 20.2 h 5.64 v 2.71 z m 9,0 v -22.92 h 8.28 v 2.7 h -6.77 v 7.02 h 6.34 v 2.7 h -6.34 v 7.79 h 7.03 v 2.7 z m 9.39,0 4.4,-22.92 h 1.64 l 4.68,22.91 h -1.72 l -1.34,-6.94 h -4.79 l -1.26,6.94 z m 3.3,-9.42 h 3.9 l -1.2,-6.34 c -0.37,-1.93 -0.64,-3.51 -0.82,-4.75 a 53.57,53.57 0 0 1 -0.61,4.38 z m 8.67,9.42 v -22.92 h 5.08 c 1.02,0 1.8,0.21 2.33,0.62 0.53,0.41 0.95,1.14 1.27,2.18 0.32,1.04 0.48,2.2 0.48,3.45 0,1.63 -0.26,3 -0.79,4.11 a 3.7,3.7 0 0 1 -2.44,2.13 c 0.4,0.38 0.7,0.76 0.92,1.14 0.44,0.81 0.86,1.83 1.25,3.05 l 2,6.23 h -1.91 l -1.52,-4.76 c -0.44,-1.38 -0.8,-2.43 -1.09,-3.16 a 6.65,6.65 0 0 0 -0.77,-1.53 2,2 0 0 0 -0.69,-0.61 2.38,2.38 0 0 0 -0.84,-0.11 h -1.76 v 10.17 z m 1.52,-12.8 h 3.26 c 0.69,0 1.23,-0.15 1.62,-0.44 0.4,-0.28 0.69,-0.74 0.9,-1.37 0.2,-0.63 0.3,-1.32 0.3,-2.06 a 5.4,5.4 0 0 0 -0.6,-2.67 1.99,1.99 0 0 0 -1.86,-1.04 h -3.62 z m -43.53,56.65 v -22.9 h 5.08 c 1.02,0 1.8,0.2 2.32,0.61 0.53,0.42 0.96,1.14 1.28,2.18 0.31,1.05 0.47,2.2 0.47,3.46 0,1.62 -0.26,3 -0.79,4.1 a 3.7,3.7 0 0 1 -2.43,2.13 c 0.4,0.39 0.7,0.77 0.91,1.14 0.44,0.81 0.86,1.83 1.26,3.05 l 2,6.23 h -1.92 l -1.51,-4.76 c -0.44,-1.38 -0.8,-2.43 -1.1,-3.16 a 6.65,6.65 0 0 0 -0.76,-1.53 1.8,1.8 0 0 0 -0.7,-0.6 2.13,2.13 0 0 0 -0.84,-0.12 h -1.76 v 10.17 z m 1.51,-12.8 h 3.26 c 0.7,0 1.24,-0.14 1.63,-0.42 0.39,-0.29 0.68,-0.75 0.89,-1.38 0.2,-0.63 0.3,-1.31 0.3,-2.05 a 5.4,5.4 0 0 0 -0.59,-2.67 1.99,1.99 0 0 0 -1.86,-1.05 h -3.63 z m 10.06,12.8 v -22.9 h 8.28 v 2.7 h -6.77 v 7.02 h 6.34 v 2.68 h -6.34 v 7.8 h 7.03 v 2.7 z m 10.14,-7.35 1.43,-0.26 c 0.07,1.15 0.22,2.09 0.47,2.82 a 4,4 0 0 0 1.15,1.79 c 0.52,0.45 1.11,0.68 1.76,0.68 0.58,0 1.09,-0.18 1.53,-0.52 0.44,-0.34 0.77,-0.82 0.99,-1.41 0.22,-0.6 0.32,-1.26 0.32,-1.97 0,-0.71 -0.1,-1.34 -0.3,-1.88 a 3.18,3.18 0 0 0 -1.04,-1.35 c -0.3,-0.24 -0.99,-0.61 -2.04,-1.12 a 7.71,7.71 0 0 1 -2.2,-1.43 5.38,5.38 0 0 1 -1.23,-2.13 9.4,9.4 0 0 1 -0.4,-2.85 c 0,-1.16 0.16,-2.24 0.49,-3.24 0.33,-1 0.8,-1.77 1.44,-2.3 a 3.38,3.38 0 0 1 4.35,0.04 5.18,5.18 0 0 1 1.49,2.42 c 0.35,1.06 0.54,2.27 0.56,3.61 l -1.45,0.22 a 7.16,7.16 0 0 0 -0.8,-3.28 2.2,2.2 0 0 0 -1.99,-1.11 c -0.92,0 -1.59,0.33 -2,1 a 4.5,4.5 0 0 0 -0.63,2.44 c 0,0.82 0.15,1.5 0.44,2.03 0.3,0.53 1.06,1.07 2.29,1.63 1.23,0.56 2.07,1.04 2.53,1.46 a 5.5,5.5 0 0 1 1.48,2.34 c 0.32,0.94 0.48,2.03 0.48,3.25 0,1.22 -0.18,2.37 -0.53,3.45 a 5.72,5.72 0 0 1 -1.5,2.52 c -0.66,0.6 -1.4,0.9 -2.2,0.9 -1.05,0 -1.91,-0.3 -2.61,-0.91 a 5.96,5.96 0 0 1 -1.65,-2.73 c -0.4,-1.21 -0.61,-2.58 -0.63,-4.12 z m 11.23,7.35 v -22.9 h 8.28 v 2.7 h -6.76 v 7.02 h 6.33 v 2.68 h -6.33 v 7.8 h 7.03 v 2.7 z m 13.57,0 v -20.2 h -3.77 v -2.7 h 9.08 v 2.7 h -3.8 v 20.2 z m -50.33,57.17 1.43,-0.25 c 0.07,1.14 0.23,2.08 0.47,2.82 a 4,4 0 0 0 1.16,1.78 c 0.52,0.45 1.1,0.68 1.75,0.68 0.58,0 1.1,-0.17 1.53,-0.52 a 3,3 0 0 0 1,-1.41 6.15,6.15 0 0 0 0,-3.84 c -0.2,-0.54 -0.55,-0.99 -1.03,-1.36 -0.3,-0.23 -0.98,-0.6 -2.04,-1.11 a 7.71,7.71 0 0 1 -2.2,-1.43 5.38,5.38 0 0 1 -1.23,-2.13 c -0.27,-0.85 -0.4,-1.8 -0.4,-2.86 0,-1.15 0.16,-2.23 0.5,-3.24 0.32,-1 0.8,-1.77 1.43,-2.29 a 3.38,3.38 0 0 1 4.35,0.04 5.18,5.18 0 0 1 1.5,2.42 c 0.34,1.06 0.53,2.26 0.55,3.6 l -1.45,0.22 a 7.16,7.16 0 0 0 -0.8,-3.28 2.2,2.2 0 0 0 -1.99,-1.1 c -0.91,0 -1.58,0.33 -2,1 a 4.5,4.5 0 0 0 -0.63,2.43 c 0,0.82 0.15,1.5 0.44,2.03 0.3,0.53 1.06,1.08 2.29,1.63 a 10.2,10.2 0 0 1 2.53,1.47 5.5,5.5 0 0 1 1.48,2.33 c 0.32,0.94 0.48,2.03 0.48,3.26 0,1.22 -0.18,2.37 -0.53,3.44 a 5.72,5.72 0 0 1 -1.5,2.52 c -0.65,0.6 -1.39,0.9 -2.2,0.9 -1.04,0 -1.91,-0.3 -2.61,-0.9 a 5.96,5.96 0 0 1 -1.65,-2.73 c -0.4,-1.22 -0.6,-2.59 -0.63,-4.12 z m 18.72,-15.55 h 1.52 v 13.24 c 0,2.3 -0.13,4.13 -0.4,5.48 a 7.45,7.45 0 0 1 -1.4,3.3 3.26,3.26 0 0 1 -2.68,1.28 3.42,3.42 0 0 1 -2.63,-1.11 6.65,6.65 0 0 1 -1.47,-3.21 c -0.29,-1.4 -0.43,-3.32 -0.43,-5.74 v -13.24 h 1.51 v 13.22 c 0,1.99 0.1,3.46 0.28,4.4 0.19,0.94 0.5,1.67 0.95,2.18 0.45,0.5 1,0.76 1.66,0.76 1.11,0 1.9,-0.5 2.38,-1.51 0.47,-1.01 0.71,-2.95 0.71,-5.83 z m 3.98,22.91 v -22.9 h 4.3 a 3,3 0 0 1 2.1,0.69 c 0.54,0.46 0.95,1.17 1.25,2.14 a 10.13,10.13 0 0 1 0.05,5.79 4.91,4.91 0 0 1 -1.2,2.1 3.9,3.9 0 0 1 1.6,2.07 12.33,12.33 0 0 1 0.21,6.46 c -0.22,0.92 -0.5,1.63 -0.84,2.13 -0.33,0.5 -0.75,0.88 -1.25,1.14 -0.5,0.25 -1.12,0.38 -1.85,0.38 z m 1.52,-13.28 h 2.48 c 0.67,0 1.15,-0.1 1.44,-0.27 0.39,-0.23 0.68,-0.6 0.87,-1.14 0.2,-0.53 0.3,-1.2 0.3,-2 0,-0.76 -0.1,-1.43 -0.28,-2 -0.18,-0.59 -0.44,-0.98 -0.78,-1.2 a 3.45,3.45 0 0 0 -1.74,-0.32 h -2.29 z m 0,10.57 h 2.85 c 0.5,0 0.83,-0.03 1.03,-0.1 0.35,-0.13 0.64,-0.34 0.88,-0.63 0.23,-0.3 0.42,-0.72 0.58,-1.27 0.15,-0.56 0.22,-1.2 0.22,-1.93 0,-0.86 -0.1,-1.6 -0.33,-2.23 a 2.5,2.5 0 0 0 -0.9,-1.33 3.05,3.05 0 0 0 -1.68,-0.38 h -2.65 z m 9.19,2.71 v -22.9 h 2.28 l 2.7,16.21 c 0.26,1.51 0.44,2.64 0.56,3.4 l 0.6,-3.68 2.75,-15.94 h 2.04 v 22.9 h -1.46 v -19.16 l -3.33,19.17 h -1.37 l -3.31,-19.5 v 19.5 z m 13.65,0 v -22.9 h 1.51 v 22.9 z m 7.09,0 v -20.2 h -3.77 v -2.7 h 9.07 v 2.7 h -3.79 v 20.2 z"
     id="path4"
     inkscape:connector-curvature="0"
     style="fill:#000000" />
  <path
     style="opacity:1;vector-effect:none;fill:#ffffff;fill-opacity:1;stroke:none;stroke-width:2;stroke-linecap:butt;stroke-linejoin:miter;stroke-miterlimit:4;stroke-dasharray:none;stroke-dashoffset:0;stroke-opacity:1"
     d="m 253.24127,126.90607 h 81.31461 v 160.02298 h -81.31461 z"
     id="rect27" />
  <path
     style="opacity:1;vector-effect:none;fill:#ffffff;fill-opacity:1;stroke:#000015;stroke-width:2.00884581;stroke-linecap:butt;stroke-linejoin:miter;stroke-miterlimit:4;stroke-dasharray:none;stroke-dashoffset:0;stroke-opacity:1"
     d="m 256.79773,285.34006 h 74.19553 v 35.27983 h -74.19553 z"
     id="rect838" />
  <path
     style="opacity:1;vector-effect:none;fill:#ffffff;fill-opacity:1;stroke:#000015;stroke-width:2.00883603;stroke-linecap:butt;stroke-linejoin:miter;stroke-miterlimit:4;stroke-dasharray:none;stroke-dashoffset:0;stroke-opacity:1"
     d="m 257.48737,215.13458 h 74.19516 v 35.27966 h -74.19516 z"
     id="rect838-5" />
  <path
     style="opacity:1;vector-effect:none;fill:#ffffff;fill-opacity:1;stroke:#000015;stroke-width:2.00883603;stroke-linecap:butt;stroke-linejoin:miter;stroke-miterlimit:4;stroke-dasharray:none;stroke-dashoffset:0;stroke-opacity:1"
     d="m 257.48737,171.17459 h 74.19516 v 35.27966 h -74.19516 z"
     id="rect838-53" />
  <path
     style="opacity:1;vector-effect:none;fill:#ffffff;fill-opacity:1;stroke:#000015;stroke-width:2.87903118;stroke-linecap:butt;stroke-linejoin:miter;stroke-miterlimit:4;stroke-dasharray:none;stroke-dashoffset:0;stroke-opacity:1"
     d="m 257.35632,77.050255 h 73.32497 v 73.324965 h -73.32497 z"
     id="rect838-53-2" />
  <g
     aria-label="SUBMIT"
     style="font-style:normal;font-variant:normal;font-weight:normal;font-stretch:normal;font-size:30.46485901px;line-height:1.25;font-family:'Ostrich Sans';-inkscape-font-specification:'Ostrich Sans';letter-spacing:0px;word-spacing:0px;fill:#000000;fill-opacity:1;stroke:none;stroke-width:1.42804015"
     id="text15">
    <path
       d="m 262.20894,307.06221 c 0,3.9909 1.67557,5.94065 5.0267,5.94065 3.22928,0 5.02671,-1.82789 5.02671,-5.23996 0,-2.95509 -2.04115,-4.50879 -4.05183,-6.0625 h 0.0305 c -1.49277,-1.15767 -2.98555,-2.3458 -2.98555,-3.8995 0,-1.58418 0.70069,-2.28487 1.98021,-2.28487 1.34046,0 1.98022,0.91395 1.98022,2.92463 v 0.42651 c 0,0.60929 0.48744,1.09673 1.09673,1.09673 h 0.85302 c 0.6093,0 1.09674,-0.48744 1.09674,-1.09673 v -0.42651 c 0,-3.86904 -1.7365,-5.97111 -5.02671,-5.97111 -3.22927,0 -5.0267,1.98021 -5.0267,5.42274 0,3.01602 2.10208,4.66112 4.11276,6.2453 v -0.0305 c 1.49278,1.15767 2.89416,2.28487 2.89416,3.71671 0,1.61464 -0.70069,2.16301 -1.98022,2.16301 -0.4265,0 -0.94441,-0.0609 -1.27952,-0.39604 -0.42651,-0.36558 -0.70069,-1.06627 -0.70069,-2.52859 v -0.39604 c 0,-0.6093 -0.51791,-1.09674 -1.09674,-1.09674 h -0.85301 c -0.6093,0 -1.09674,0.48744 -1.09674,1.09674 z"
       style="text-align:center;text-anchor:middle;stroke-width:1.42804015"
       id="path76" />
    <path
       d="m 274.13403,307.42779 c 0,3.22928 1.34045,5.57507 4.99624,5.57507 3.53392,0 4.99623,-2.163 4.99623,-5.57507 v -13.86151 c 0,-0.6093 -0.48743,-1.09673 -1.09673,-1.09673 h -0.85302 c -0.57883,0 -1.06627,0.48743 -1.06627,1.09673 v 13.86151 c 0,1.46231 -0.42651,2.55905 -1.98021,2.55905 -1.49278,0 -1.98022,-0.94441 -1.98022,-2.55905 v -13.86151 c 0,-0.6093 -0.48744,-1.09673 -1.09673,-1.09673 h -0.85302 c -0.57883,0 -1.06627,0.48743 -1.06627,1.09673 z"
       style="text-align:center;text-anchor:middle;stroke-width:1.42804015"
       id="path78" />
    <path
       d="m 291.07868,313.03333 c 3.56439,0 5.14856,-1.94976 5.14856,-5.87972 0,-1.85836 -0.5179,-3.41207 -1.30999,-4.38694 0,0 1.30999,-1.55371 1.30999,-4.38694 0,-3.92997 -1.58417,-5.87972 -5.14856,-5.87972 h -3.01602 c -0.6093,0 -1.09674,0.48744 -1.09674,1.09674 v 18.33984 c 0,0.6093 0.48744,1.09674 1.09674,1.09674 z m 0,-17.5173 c 1.49278,0 2.10207,0.82255 2.10207,2.8637 0,2.04114 -0.60929,2.86369 -2.10207,2.86369 h -1.06627 v -5.72739 z m 0,8.74342 c 1.49278,0 2.10207,0.82255 2.10207,2.89416 0,2.04114 -0.60929,2.86369 -2.10207,2.86369 h -1.06627 v -5.75785 z"
       style="text-align:center;text-anchor:middle;stroke-width:1.42804015"
       id="path80" />
    <path
       d="m 304.29186,313.03333 c 0.45697,0 0.94441,-0.39605 1.06627,-0.88349 l 1.00534,-6.76319 v 6.54994 c 0,0.6093 0.48744,1.09674 1.09674,1.09674 h 0.85301 c 0.6093,0 1.09674,-0.48744 1.09674,-1.09674 v -18.33984 c 0,-0.6093 -0.48744,-1.09674 -1.09674,-1.09674 h -0.91394 c -0.45698,0 -0.97488,0.39604 -1.06627,0.85302 l -2.37626,12.27733 -2.40673,-12.27733 c -0.0914,-0.45698 -0.57883,-0.85302 -1.0358,-0.85302 h -0.91395 c -0.60929,0 -1.09673,0.48744 -1.09673,1.09674 v 18.33984 c 0,0.6093 0.48744,1.09674 1.09673,1.09674 h 0.85302 c 0.57883,0 1.09673,-0.48744 1.09673,-1.09674 v -6.61087 l 1.03581,6.85459 c 0.0914,0.45697 0.57883,0.85302 1.0358,0.85302 z"
       style="text-align:center;text-anchor:middle;stroke-width:1.42804015"
       id="path82" />
    <path
       d="m 314.99597,293.59675 c 0,-0.6093 -0.5179,-1.09674 -1.09673,-1.09674 h -0.85302 c -0.6093,0 -1.09673,0.48744 -1.09673,1.09674 v 18.33984 c 0,0.6093 0.48743,1.09674 1.09673,1.09674 h 0.85302 c 0.57883,0 1.09673,-0.48744 1.09673,-1.09674 z"
       style="text-align:center;text-anchor:middle;stroke-width:1.42804015"
       id="path84" />
    <path
       d="m 316.94763,294.4193 c 0,0.60929 0.48744,1.09673 1.09673,1.09673 h 2.46766 v 16.3901 c 0,0.60929 0.48743,1.09673 1.09673,1.09673 h 0.82255 c 0.6093,0 1.09674,-0.48744 1.09674,-1.09673 v -16.3901 h 2.49812 c 0.60929,0 1.09673,-0.48744 1.09673,-1.09673 v -0.85302 c 0,-0.6093 -0.48744,-1.09673 -1.09673,-1.09673 h -7.9818 c -0.60929,0 -1.09673,0.48743 -1.09673,1.09673 z"
       style="text-align:center;text-anchor:middle;stroke-width:1.42804015"
       id="path86" />
  </g>
  <g
     aria-label="RESET"
     style="font-style:normal;font-variant:normal;font-weight:normal;font-stretch:normal;font-size:30.46470833px;line-height:1.25;font-family:'Ostrich Sans';-inkscape-font-specification:'Ostrich Sans';letter-spacing:0px;word-spacing:0px;fill:#000000;fill-opacity:1;stroke:none;stroke-width:1.42803311"
     id="text15-1">
    <path
       d="m 277.68806,236.62939 c 0,-1.58416 -0.4265,-2.83322 -1.30998,-3.77762 0.0914,-0.0914 0.15232,-0.15233 0.24372,-0.24372 0.9444,-0.94441 1.27952,-2.46764 1.27952,-4.35645 0,-4.08227 -1.30999,-5.97109 -5.05715,-5.97109 h -3.83855 c -0.60929,0 -1.09673,0.48744 -1.09673,1.09673 V 241.717 c 0,0.60929 0.48744,1.09673 1.09673,1.09673 h 0.85301 c 0.57883,0 1.06627,-0.48744 1.06627,-1.09673 v -7.46386 h 1.37091 c 1.49277,0 2.34578,0.85302 2.34578,2.37625 v 5.08761 c 0,0.60929 0.48744,1.09673 1.09673,1.09673 h 0.85301 c 0.6093,0 1.09673,-0.48744 1.09673,-1.09673 z m -6.76316,-11.3024 h 1.91927 c 1.58417,0 2.04114,0.85301 2.04114,2.92461 0,2.0716 -0.88348,2.92461 -2.5895,2.92461 h -1.37091 z"
       style="text-align:center;text-anchor:middle;stroke-width:1.42803311"
       id="path89" />
    <path
       d="m 281.08297,222.31098 c -0.60929,0 -1.09673,0.48743 -1.09673,1.09673 v 18.33975 c 0,0.6093 0.48744,1.09673 1.09673,1.09673 h 6.58038 c 0.60929,0 1.09673,-0.48743 1.09673,-1.09673 v -0.82254 c 0,-0.6093 -0.48744,-1.09673 -1.09673,-1.09673 h -4.6611 v -5.75783 h 3.83855 c 0.6093,0 1.09673,-0.48744 1.09673,-1.09673 v -0.82255 c 0,-0.60929 -0.48743,-1.09673 -1.09673,-1.09673 h -3.83855 v -5.72736 h 4.6611 c 0.60929,0 1.09673,-0.48744 1.09673,-1.09673 v -0.82255 c 0,-0.6093 -0.48744,-1.09673 -1.09673,-1.09673 z"
       style="text-align:center;text-anchor:middle;stroke-width:1.42803311"
       id="path91" />
    <path
       d="m 289.83444,236.87311 c 0,3.99088 1.67555,5.94062 5.02667,5.94062 3.22926,0 5.02668,-1.82788 5.02668,-5.23993 0,-2.95508 -2.04114,-4.50878 -4.05181,-6.06248 h 0.0305 c -1.49277,-1.15766 -2.98554,-2.34578 -2.98554,-3.89948 0,-1.58417 0.70069,-2.28485 1.9802,-2.28485 1.34045,0 1.98021,0.91394 1.98021,2.92461 v 0.4265 c 0,0.6093 0.48743,1.09673 1.09673,1.09673 h 0.85301 c 0.60929,0 1.09673,-0.48743 1.09673,-1.09673 v -0.4265 c 0,-3.86902 -1.73649,-5.97109 -5.02668,-5.97109 -3.22926,0 -5.02667,1.98021 -5.02667,5.42272 0,3.01601 2.10206,4.6611 4.11273,6.24527 v -0.0305 c 1.49277,1.15766 2.89415,2.28486 2.89415,3.7167 0,1.61463 -0.70069,2.16299 -1.98021,2.16299 -0.4265,0 -0.9444,-0.0609 -1.27951,-0.39604 -0.42651,-0.36558 -0.70069,-1.06626 -0.70069,-2.52857 v -0.39604 c 0,-0.6093 -0.5179,-1.09673 -1.09673,-1.09673 h -0.85301 c -0.6093,0 -1.09673,0.48743 -1.09673,1.09673 z"
       style="text-align:center;text-anchor:middle;stroke-width:1.42803311"
       id="path93" />
    <path
       d="m 303.03898,222.31098 c -0.60929,0 -1.09673,0.48743 -1.09673,1.09673 v 18.33975 c 0,0.6093 0.48744,1.09673 1.09673,1.09673 h 6.58038 c 0.60929,0 1.09673,-0.48743 1.09673,-1.09673 v -0.82254 c 0,-0.6093 -0.48744,-1.09673 -1.09673,-1.09673 h -4.6611 v -5.75783 h 3.83855 c 0.6093,0 1.09673,-0.48744 1.09673,-1.09673 v -0.82255 c 0,-0.60929 -0.48743,-1.09673 -1.09673,-1.09673 h -3.83855 v -5.72736 h 4.6611 c 0.60929,0 1.09673,-0.48744 1.09673,-1.09673 v -0.82255 c 0,-0.6093 -0.48744,-1.09673 -1.09673,-1.09673 z"
       style="text-align:center;text-anchor:middle;stroke-width:1.42803311"
       id="path95" />
    <path
       d="m 312.62061,224.23026 c 0,0.60929 0.48744,1.09673 1.09673,1.09673 h 2.46764 V 241.717 c 0,0.60929 0.48744,1.09673 1.09673,1.09673 h 0.82255 c 0.60929,0 1.09673,-0.48744 1.09673,-1.09673 v -16.39001 h 2.49811 c 0.60929,0 1.09673,-0.48744 1.09673,-1.09673 v -0.85302 c 0,-0.60929 -0.48744,-1.09673 -1.09673,-1.09673 h -7.98176 c -0.60929,0 -1.09673,0.48744 -1.09673,1.09673 z"
       style="text-align:center;text-anchor:middle;stroke-width:1.42803311"
       id="path97" />
  </g>
  <g
     aria-label="CLEAR"
     style="font-style:normal;font-variant:normal;font-weight:normal;font-stretch:normal;font-size:30.46470833px;line-height:1.25;font-family:'Ostrich Sans';-inkscape-font-specification:'Ostrich Sans';letter-spacing:0px;word-spacing:0px;fill:#000000;fill-opacity:1;stroke:none;stroke-width:1.42803311"
     id="text15-1-8">
    <path
       d="m 267.46651,193.3561 c 0,2.40671 0.67022,3.80808 1.61463,4.75249 1.00533,0.97487 2.25438,1.21859 3.41204,1.21859 1.09673,0 2.37625,-0.24372 3.38159,-1.21859 0.9444,-0.94441 1.58416,-2.34578 1.58416,-4.75249 v -0.42651 c 0,-0.60929 -0.48743,-1.09673 -1.06626,-1.09673 h -0.88348 c -0.6093,0 -1.09673,0.48744 -1.09673,1.09673 v 0.42651 c 0,1.09673 -0.15232,1.91927 -0.5179,2.40671 -0.27418,0.30465 -0.82255,0.54836 -1.40138,0.54836 -1.30998,0 -1.94974,-0.91394 -1.94974,-2.95507 v -8.62152 c 0,-2.04113 0.67023,-2.92461 1.94974,-2.92461 1.24906,0 1.91928,0.88348 1.91928,2.92461 v 0.42651 c 0,0.60929 0.48743,1.09673 1.09673,1.09673 h 0.88348 c 0.57883,0 1.06626,-0.48744 1.06626,-1.09673 v -0.42651 c 0,-2.31531 -0.63976,-3.83855 -1.61463,-4.75249 -1.00533,-0.91394 -2.22392,-1.18812 -3.35112,-1.18812 -1.15766,0 -2.37624,0.27418 -3.38158,1.18812 -0.97487,0.91394 -1.64509,2.43718 -1.64509,4.75249 z"
       style="text-align:center;text-anchor:middle;stroke-width:1.42803311"
       id="path100" />
    <path
       d="m 288.0159,197.4079 c 0,-0.60929 -0.48743,-1.09673 -1.09673,-1.09673 h -4.53924 V 179.8907 c 0,-0.6093 -0.48743,-1.09673 -1.06626,-1.09673 h -0.88348 c -0.60929,0 -1.09673,0.48743 -1.09673,1.09673 v 18.33975 c 0,0.60929 0.48744,1.09673 1.09673,1.09673 h 6.48898 c 0.6093,0 1.09673,-0.48744 1.09673,-1.09673 z"
       style="text-align:center;text-anchor:middle;stroke-width:1.42803311"
       id="path102" />
    <path
       d="m 290.84722,178.79397 c -0.6093,0 -1.09673,0.48743 -1.09673,1.09673 v 18.33975 c 0,0.60929 0.48743,1.09673 1.09673,1.09673 h 6.58037 c 0.6093,0 1.09673,-0.48744 1.09673,-1.09673 v -0.82255 c 0,-0.60929 -0.48743,-1.09673 -1.09673,-1.09673 h -4.6611 v -5.75783 h 3.83856 c 0.60929,0 1.09673,-0.48743 1.09673,-1.09673 v -0.82254 c 0,-0.6093 -0.48744,-1.09673 -1.09673,-1.09673 h -3.83856 v -5.72737 h 4.6611 c 0.6093,0 1.09673,-0.48743 1.09673,-1.09673 v -0.82254 c 0,-0.6093 -0.48743,-1.09673 -1.09673,-1.09673 z"
       style="text-align:center;text-anchor:middle;stroke-width:1.42803311"
       id="path104" />
    <path
       d="m 307.64708,198.47417 c 0.12186,0.45697 0.60929,0.85301 1.06626,0.85301 h 0.88348 c 0.73115,0 1.21859,-0.63976 1.06626,-1.34045 l -4.20413,-18.33975 c -0.0914,-0.45697 -0.60929,-0.85301 -1.06626,-0.85301 h -0.67023 c -0.45697,0 -0.9444,0.39604 -1.06626,0.85301 l -2.77229,11.9117 -1.4623,6.45852 c -0.15233,0.70068 0.33511,1.30998 1.06626,1.30998 h 0.88348 c 0.45697,0 0.9444,-0.39604 1.06626,-0.85301 l 1.06627,-4.7525 h 3.1074 z m -2.5895,-12.64286 c 0.57883,2.5895 0.5179,3.41205 0.85301,4.87436 h -1.70603 z"
       style="text-align:center;text-anchor:middle;stroke-width:1.42803311"
       id="path106" />
    <path
       d="m 321.6656,193.11238 c 0,-1.58417 -0.42651,-2.83322 -1.30998,-3.77763 0.0914,-0.0914 0.15232,-0.15232 0.24372,-0.24371 0.9444,-0.94441 1.27951,-2.46764 1.27951,-4.35646 0,-4.08227 -1.30998,-5.97108 -5.05714,-5.97108 h -3.83855 c -0.6093,0 -1.09673,0.48744 -1.09673,1.09673 v 18.33975 c 0,0.6093 0.48743,1.09673 1.09673,1.09673 h 0.85301 c 0.57883,0 1.06627,-0.48743 1.06627,-1.09673 v -7.46385 h 1.37091 c 1.49277,0 2.34578,0.85301 2.34578,2.37625 v 5.0876 c 0,0.6093 0.48744,1.09673 1.09673,1.09673 h 0.85301 c 0.6093,0 1.09673,-0.48743 1.09673,-1.09673 z m -6.76316,-11.30241 h 1.91927 c 1.58417,0 2.04114,0.85301 2.04114,2.92461 0,2.0716 -0.88348,2.92462 -2.5895,2.92462 h -1.37091 z"
       style="text-align:center;text-anchor:middle;stroke-width:1.42803311"
       id="path108" />
  </g>
  <g
     aria-label="4"
     style="font-style:normal;font-variant:normal;font-weight:normal;font-stretch:normal;font-size:78.59601593px;line-height:1.25;font-family:'Ostrich Sans';-inkscape-font-specification:'Ostrich Sans';letter-spacing:0px;word-spacing:0px;fill:#000000;fill-opacity:1;stroke:none;stroke-width:3.68418789"
     id="text15-1-8-7">
    <path
       d="m 297.66595,124.40645 v 11.63221 c 0,1.57192 1.25753,2.82946 2.82945,2.82946 h 2.20069 c 1.57192,0 2.82946,-1.25754 2.82946,-2.82946 v -47.3148 c 0,-1.57192 -1.25754,-2.829456 -2.82946,-2.829456 H 300.574 c -0.78596,0 -2.0435,0.78596 -2.43648,1.493324 l -16.89814,31.359812 v 2.82945 c 0,1.57193 1.25754,2.82946 2.82946,2.82946 z m 0,-7.781 h -7.23084 l 7.30943,-12.73256 z"
       style="text-align:center;text-anchor:middle;stroke-width:3.68418789"
       id="path111" />
  </g>
</svg>
